<svg xmlns="http://www.w3.org/2000/svg" viewBox="0 0 100 100" width="100" height="100">
  <!-- Rose petals -->
  <g transform="translate(50, 50)">
    <!-- Outer petals -->
    <ellipse cx="0" cy="-15" rx="18" ry="25" fill="#ff69b4" opacity="0.9" transform="rotate(0)"/>
    <ellipse cx="0" cy="-15" rx="18" ry="25" fill="#ff1493" opacity="0.9" transform="rotate(45)"/>
    <ellipse cx="0" cy="-15" rx="18" ry="25" fill="#ff69b4" opacity="0.9" transform="rotate(90)"/>
    <ellipse cx="0" cy="-15" rx="18" ry="25" fill="#ff1493" opacity="0.9" transform="rotate(135)"/>
    <ellipse cx="0" cy="-15" rx="18" ry="25" fill="#ff69b4" opacity="0.9" transform="rotate(180)"/>
    <ellipse cx="0" cy="-15" rx="18" ry="25" fill="#ff1493" opacity="0.9" transform="rotate(225)"/>
    <ellipse cx="0" cy="-15" rx="18" ry="25" fill="#ff69b4" opacity="0.9" transform="rotate(270)"/>
    <ellipse cx="0" cy="-15" rx="18" ry="25" fill="#ff1493" opacity="0.9" transform="rotate(315)"/>
    
    <!-- Middle petals -->
    <ellipse cx="0" cy="-10" rx="12" ry="18" fill="#ffb6c1" opacity="0.95" transform="rotate(22.5)"/>
    <ellipse cx="0" cy="-10" rx="12" ry="18" fill="#ff69b4" opacity="0.95" transform="rotate(67.5)"/>
    <ellipse cx="0" cy="-10" rx="12" ry="18" fill="#ffb6c1" opacity="0.95" transform="rotate(112.5)"/>
    <ellipse cx="0" cy="-10" rx="12" ry="18" fill="#ff69b4" opacity="0.95" transform="rotate(157.5)"/>
    <ellipse cx="0" cy="-10" rx="12" ry="18" fill="#ffb6c1" opacity="0.95" transform="rotate(202.5)"/>
    <ellipse cx="0" cy="-10" rx="12" ry="18" fill="#ff69b4" opacity="0.95" transform="rotate(247.5)"/>
    <ellipse cx="0" cy="-10" rx="12" ry="18" fill="#ffb6c1" opacity="0.95" transform="rotate(292.5)"/>
    <ellipse cx="0" cy="-10" rx="12" ry="18" fill="#ff69b4" opacity="0.95" transform="rotate(337.5)"/>
    
    <!-- Inner petals -->
    <ellipse cx="0" cy="-5" rx="8" ry="12" fill="#ffc0cb" opacity="1" transform="rotate(0)"/>
    <ellipse cx="0" cy="-5" rx="8" ry="12" fill="#ffb6c1" opacity="1" transform="rotate(45)"/>
    <ellipse cx="0" cy="-5" rx="8" ry="12" fill="#ffc0cb" opacity="1" transform="rotate(90)"/>
    <ellipse cx="0" cy="-5" rx="8" ry="12" fill="#ffb6c1" opacity="1" transform="rotate(135)"/>
    
    <!-- Center -->
    <circle cx="0" cy="0" r="6" fill="#ff1493" opacity="0.8"/>
    <circle cx="0" cy="0" r="3" fill="#ff69b4"/>
    
    <!-- Stem -->
    <rect x="-2" y="15" width="4" height="25" fill="#228b22" rx="2"/>
    <rect x="-1.5" y="15" width="3" height="25" fill="#32cd32" rx="1.5"/>
    
    <!-- Leaves -->
    <ellipse cx="-8" cy="25" rx="6" ry="10" fill="#228b22" transform="rotate(-30)"/>
    <ellipse cx="8" cy="28" rx="6" ry="10" fill="#228b22" transform="rotate(30)"/>
  </g>
</svg>

